<mxfile host="798f0340-183a-44ab-90a3-3f9218eacacd" modified="2020-09-21T04:14:11.599Z" agent="5.0 (Windows NT 10.0; Win64; x64) AppleWebKit/537.36 (KHTML, like Gecko) Code/1.49.1 Chrome/83.0.4103.122 Electron/9.2.1 Safari/537.36" etag="lVafqgctSrrFX8e_DLgm" version="13.1.3">
    <diagram id="6hGFLwfOUW9BJ-s0fimq" name="Page-1">
        <mxGraphModel dx="1699" dy="880" grid="1" gridSize="10" guides="1" tooltips="1" connect="1" arrows="1" fold="1" page="1" pageScale="1" pageWidth="827" pageHeight="1169" math="0" shadow="0">
            <root>
                <mxCell id="0"/>
                <mxCell id="1" parent="0"/>
                <mxCell id="64" value="" style="rounded=1;whiteSpace=wrap;html=1;strokeColor=#36393d;fillColor=#DBEBFF;fontSize=11;dashed=1;dashPattern=1 4;" parent="1" vertex="1">
                    <mxGeometry x="390" y="72" width="142" height="508" as="geometry"/>
                </mxCell>
                <mxCell id="37" value="" style="rounded=1;whiteSpace=wrap;html=1;fontSize=15;fillColor=none;dashed=1;" parent="1" vertex="1">
                    <mxGeometry x="377" y="40" width="443" height="551" as="geometry"/>
                </mxCell>
                <mxCell id="59" value="" style="rounded=1;whiteSpace=wrap;html=1;strokeColor=#36393d;fillColor=#DBEBFF;fontSize=11;dashed=1;dashPattern=1 4;" parent="1" vertex="1">
                    <mxGeometry x="42" y="226" width="185" height="215" as="geometry"/>
                </mxCell>
                <mxCell id="19" value="" style="rounded=1;whiteSpace=wrap;html=1;fillColor=none;" parent="1" vertex="1">
                    <mxGeometry x="440" y="437.5" width="360" height="105" as="geometry"/>
                </mxCell>
                <mxCell id="14" value="" style="rounded=1;whiteSpace=wrap;html=1;fillColor=none;" parent="1" vertex="1">
                    <mxGeometry x="427" y="286" width="373" height="105" as="geometry"/>
                </mxCell>
                <mxCell id="10" value="" style="rounded=1;whiteSpace=wrap;html=1;fillColor=none;" parent="1" vertex="1">
                    <mxGeometry x="427" y="131" width="373" height="105" as="geometry"/>
                </mxCell>
                <mxCell id="5" value="" style="rounded=1;whiteSpace=wrap;html=1;fillColor=none;" parent="1" vertex="1">
                    <mxGeometry x="652" y="71" width="125" height="39" as="geometry"/>
                </mxCell>
                <mxCell id="3" value="" style="html=1;dashed=0;whitespace=wrap;fillColor=#2875E2;strokeColor=#ffffff;points=[[0.005,0.63,0],[0.1,0.2,0],[0.9,0.2,0],[0.5,0,0],[0.995,0.63,0],[0.72,0.99,0],[0.5,1,0],[0.28,0.99,0]];shape=mxgraph.kubernetes.icon;prIcon=master" parent="1" vertex="1">
                    <mxGeometry x="652" y="41" width="50" height="48" as="geometry"/>
                </mxCell>
                <mxCell id="9" value="control plane" style="rounded=0;whiteSpace=wrap;html=1;fillColor=#FFFFFF;" parent="1" vertex="1">
                    <mxGeometry x="699" y="61" width="75" height="20" as="geometry"/>
                </mxCell>
                <mxCell id="11" value="node-1" style="rounded=0;whiteSpace=wrap;html=1;fillColor=#FFFFFF;" parent="1" vertex="1">
                    <mxGeometry x="477" y="121" width="55" height="20" as="geometry"/>
                </mxCell>
                <mxCell id="4" value="" style="html=1;dashed=0;whitespace=wrap;fillColor=#2875E2;strokeColor=#ffffff;points=[[0.005,0.63,0],[0.1,0.2,0],[0.9,0.2,0],[0.5,0,0],[0.995,0.63,0],[0.72,0.99,0],[0.5,1,0],[0.28,0.99,0]];shape=mxgraph.kubernetes.icon;prIcon=node" parent="1" vertex="1">
                    <mxGeometry x="427" y="101" width="50" height="48" as="geometry"/>
                </mxCell>
                <mxCell id="12" value="" style="html=1;dashed=0;whitespace=wrap;fillColor=#2875E2;strokeColor=#ffffff;points=[[0.005,0.63,0],[0.1,0.2,0],[0.9,0.2,0],[0.5,0,0],[0.995,0.63,0],[0.72,0.99,0],[0.5,1,0],[0.28,0.99,0]];shape=mxgraph.kubernetes.icon;prIcon=pod" parent="1" vertex="1">
                    <mxGeometry x="452" y="152.5" width="50" height="48" as="geometry"/>
                </mxCell>
                <mxCell id="15" value="" style="html=1;dashed=0;whitespace=wrap;fillColor=#2875E2;strokeColor=#ffffff;points=[[0.005,0.63,0],[0.1,0.2,0],[0.9,0.2,0],[0.5,0,0],[0.995,0.63,0],[0.72,0.99,0],[0.5,1,0],[0.28,0.99,0]];shape=mxgraph.kubernetes.icon;prIcon=ing" parent="1" vertex="1">
                    <mxGeometry x="715.5" y="152.5" width="50" height="48" as="geometry"/>
                </mxCell>
                <mxCell id="16" value="node-2" style="rounded=0;whiteSpace=wrap;html=1;fillColor=#FFFFFF;" parent="1" vertex="1">
                    <mxGeometry x="477" y="276" width="55" height="20" as="geometry"/>
                </mxCell>
                <mxCell id="17" value="" style="html=1;dashed=0;whitespace=wrap;fillColor=#2875E2;strokeColor=#ffffff;points=[[0.005,0.63,0],[0.1,0.2,0],[0.9,0.2,0],[0.5,0,0],[0.995,0.63,0],[0.72,0.99,0],[0.5,1,0],[0.28,0.99,0]];shape=mxgraph.kubernetes.icon;prIcon=node" parent="1" vertex="1">
                    <mxGeometry x="427" y="256" width="50" height="48" as="geometry"/>
                </mxCell>
                <mxCell id="21" value="node-3" style="rounded=0;whiteSpace=wrap;html=1;fillColor=#FFFFFF;" parent="1" vertex="1">
                    <mxGeometry x="477" y="431" width="55" height="20" as="geometry"/>
                </mxCell>
                <mxCell id="22" value="" style="html=1;dashed=0;whitespace=wrap;fillColor=#2875E2;strokeColor=#ffffff;points=[[0.005,0.63,0],[0.1,0.2,0],[0.9,0.2,0],[0.5,0,0],[0.995,0.63,0],[0.72,0.99,0],[0.5,1,0],[0.28,0.99,0]];shape=mxgraph.kubernetes.icon;prIcon=node" parent="1" vertex="1">
                    <mxGeometry x="427" y="411" width="50" height="48" as="geometry"/>
                </mxCell>
                <mxCell id="23" value="" style="html=1;dashed=0;whitespace=wrap;fillColor=#2875E2;strokeColor=#ffffff;points=[[0.005,0.63,0],[0.1,0.2,0],[0.9,0.2,0],[0.5,0,0],[0.995,0.63,0],[0.72,0.99,0],[0.5,1,0],[0.28,0.99,0]];shape=mxgraph.kubernetes.icon;prIcon=pod" parent="1" vertex="1">
                    <mxGeometry x="452" y="462.5" width="50" height="48" as="geometry"/>
                </mxCell>
                <mxCell id="26" style="rounded=0;orthogonalLoop=1;jettySize=auto;html=1;exitX=0.8555;exitY=0.145;exitDx=0;exitDy=0;exitPerimeter=0;startArrow=open;startFill=0;endArrow=open;endFill=0;endSize=15;startSize=15;entryX=0;entryY=0.5;entryDx=0;entryDy=0;" parent="1" source="24" target="10" edge="1">
                    <mxGeometry relative="1" as="geometry">
                        <mxPoint x="430" y="184" as="targetPoint"/>
                    </mxGeometry>
                </mxCell>
                <mxCell id="29" style="rounded=0;orthogonalLoop=1;jettySize=auto;html=1;exitX=1;exitY=0.5;exitDx=0;exitDy=0;exitPerimeter=0;entryX=0;entryY=0.5;entryDx=0;entryDy=0;startArrow=open;startFill=0;endArrow=open;endFill=0;endSize=15;startSize=15;" parent="1" source="24" target="14" edge="1">
                    <mxGeometry relative="1" as="geometry"/>
                </mxCell>
                <mxCell id="31" style="rounded=0;orthogonalLoop=1;jettySize=auto;html=1;exitX=0.855;exitY=0.8555;exitDx=0;exitDy=0;exitPerimeter=0;entryX=0;entryY=0.5;entryDx=0;entryDy=0;startArrow=open;startFill=0;endArrow=open;endFill=0;endSize=15;startSize=15;" parent="1" source="24" target="19" edge="1">
                    <mxGeometry relative="1" as="geometry">
                        <mxPoint x="387" y="501" as="targetPoint"/>
                    </mxGeometry>
                </mxCell>
                <mxCell id="24" value="" style="points=[[0.5,0,0],[1,0.5,0],[0.5,1,0],[0,0.5,0],[0.145,0.145,0],[0.8555,0.145,0],[0.855,0.8555,0],[0.145,0.855,0]];verticalLabelPosition=bottom;html=1;verticalAlign=top;aspect=fixed;align=center;pointerEvents=1;shape=mxgraph.cisco19.rect;prIcon=router;fillColor=#FAFAFA;strokeColor=#0072A3;" parent="1" vertex="1">
                    <mxGeometry x="77" y="296" width="90" height="90" as="geometry"/>
                </mxCell>
                <mxCell id="33" value="&lt;font style=&quot;font-size: 24px&quot;&gt;Active Route&lt;/font&gt;" style="text;html=1;strokeColor=none;fillColor=none;align=center;verticalAlign=middle;whiteSpace=wrap;rounded=0;fontSize=15;" parent="1" vertex="1">
                    <mxGeometry x="238" y="288" width="152" height="20" as="geometry"/>
                </mxCell>
                <mxCell id="35" value="BGP Peer" style="text;html=1;strokeColor=none;fillColor=none;align=center;verticalAlign=middle;whiteSpace=wrap;rounded=0;fontSize=15;" parent="1" vertex="1">
                    <mxGeometry x="240" y="451" width="80" height="20" as="geometry"/>
                </mxCell>
                <mxCell id="36" value="BGP Peer" style="text;html=1;strokeColor=none;fillColor=none;align=center;verticalAlign=middle;whiteSpace=wrap;rounded=0;fontSize=15;" parent="1" vertex="1">
                    <mxGeometry x="240" y="210.5" width="80" height="20" as="geometry"/>
                </mxCell>
                <mxCell id="38" value="" style="shape=image;imageAspect=0;aspect=fixed;verticalLabelPosition=bottom;verticalAlign=top;dashed=1;fillColor=none;fontSize=15;image=https://raw.githubusercontent.com/kubernetes/kubernetes/master/logo/logo.svg;" parent="1" vertex="1">
                    <mxGeometry x="427" y="22.44" width="50" height="48.56" as="geometry"/>
                </mxCell>
                <mxCell id="39" value="kubernetes cluster" style="rounded=0;whiteSpace=wrap;html=1;fillColor=#FFFFFF;" parent="1" vertex="1">
                    <mxGeometry x="489.5" y="36.72" width="117.5" height="20" as="geometry"/>
                </mxCell>
                <mxCell id="41" value="RouterOS" style="text;html=1;strokeColor=#000000;fillColor=#ffffff;align=center;verticalAlign=middle;whiteSpace=wrap;rounded=0;fontSize=15;" parent="1" vertex="1">
                    <mxGeometry x="82" y="266" width="80" height="20" as="geometry"/>
                </mxCell>
                <mxCell id="42" value="192.168.0.1/24" style="text;html=1;strokeColor=none;fillColor=none;align=center;verticalAlign=middle;whiteSpace=wrap;rounded=0;fontSize=11;" parent="1" vertex="1">
                    <mxGeometry x="127" y="401" width="70" height="20" as="geometry"/>
                </mxCell>
                <mxCell id="46" value="www.roy-n-roy.test" style="text;html=1;strokeColor=none;fillColor=none;align=center;verticalAlign=middle;whiteSpace=wrap;rounded=0;fontSize=11;" parent="1" vertex="1">
                    <mxGeometry x="697" y="209" width="100" height="15" as="geometry"/>
                </mxCell>
                <mxCell id="51" value="NodeIP: 192.168.0.12/24" style="text;html=1;strokeColor=none;fillColor=none;align=center;verticalAlign=middle;whiteSpace=wrap;rounded=0;fontSize=11;" parent="1" vertex="1">
                    <mxGeometry x="377" y="391" width="150" height="20" as="geometry"/>
                </mxCell>
                <mxCell id="52" value="NodeIP: 192.168.0.13/24" style="text;html=1;strokeColor=none;fillColor=none;align=center;verticalAlign=middle;whiteSpace=wrap;rounded=0;fontSize=11;" parent="1" vertex="1">
                    <mxGeometry x="382" y="546" width="150" height="20" as="geometry"/>
                </mxCell>
                <mxCell id="53" value="NodeIP: 192.168.0.10/24" style="text;html=1;strokeColor=none;fillColor=none;align=center;verticalAlign=middle;whiteSpace=wrap;rounded=0;fontSize=11;" parent="1" vertex="1">
                    <mxGeometry x="661.5" y="108.49999999999997" width="150" height="20" as="geometry"/>
                </mxCell>
                <mxCell id="54" value="MetalLB&lt;br&gt;BGP Speaker" style="text;html=1;strokeColor=none;fillColor=none;align=center;verticalAlign=middle;whiteSpace=wrap;rounded=0;fontSize=11;" parent="1" vertex="1">
                    <mxGeometry x="437" y="351" width="80" height="30" as="geometry"/>
                </mxCell>
                <mxCell id="55" value="MetalLB&lt;br&gt;BGP&amp;nbsp;Speaker&amp;nbsp;" style="text;html=1;strokeColor=none;fillColor=none;align=center;verticalAlign=middle;whiteSpace=wrap;rounded=0;fontSize=11;" parent="1" vertex="1">
                    <mxGeometry x="437" y="200.5" width="80" height="30" as="geometry"/>
                </mxCell>
                <mxCell id="56" value="MetalLB&lt;br&gt;BGP&amp;nbsp;Speaker" style="text;html=1;strokeColor=none;fillColor=none;align=center;verticalAlign=middle;whiteSpace=wrap;rounded=0;fontSize=11;" parent="1" vertex="1">
                    <mxGeometry x="437" y="510.5" width="80" height="30" as="geometry"/>
                </mxCell>
                <mxCell id="61" value="AS: 65000" style="text;html=1;strokeColor=none;fillColor=none;align=center;verticalAlign=middle;whiteSpace=wrap;rounded=0;fontSize=24;" parent="1" vertex="1">
                    <mxGeometry x="47" y="226.25" width="130" height="39.5" as="geometry"/>
                </mxCell>
                <mxCell id="62" value="AS: 65001" style="text;html=1;strokeColor=none;fillColor=none;align=center;verticalAlign=middle;whiteSpace=wrap;rounded=0;fontSize=24;" parent="1" vertex="1">
                    <mxGeometry x="427" y="71" width="130" height="39.5" as="geometry"/>
                </mxCell>
                <mxCell id="65" value="NodeIP: 192.168.0.11/24" style="text;html=1;strokeColor=none;fillColor=none;align=center;verticalAlign=middle;whiteSpace=wrap;rounded=0;fontSize=11;" parent="1" vertex="1">
                    <mxGeometry x="377" y="236" width="150" height="20" as="geometry"/>
                </mxCell>
                <mxCell id="66" value="Ingress: Service&lt;br&gt;192.168.128.1/32" style="text;html=1;strokeColor=none;fillColor=none;align=center;verticalAlign=middle;whiteSpace=wrap;rounded=0;fontSize=11;" parent="1" vertex="1">
                    <mxGeometry x="540" y="356" width="100" height="25" as="geometry"/>
                </mxCell>
                <mxCell id="78" value="" style="html=1;dashed=0;whitespace=wrap;fillColor=#2875E2;strokeColor=#ffffff;points=[[0.005,0.63,0],[0.1,0.2,0],[0.9,0.2,0],[0.5,0,0],[0.995,0.63,0],[0.72,0.99,0],[0.5,1,0],[0.28,0.99,0]];shape=mxgraph.kubernetes.icon;prIcon=ing" parent="1" vertex="1">
                    <mxGeometry x="715.5" y="466" width="50" height="48" as="geometry"/>
                </mxCell>
                <mxCell id="79" value="api.roy-n-roy.test" style="text;html=1;strokeColor=none;fillColor=none;align=center;verticalAlign=middle;whiteSpace=wrap;rounded=0;fontSize=11;" parent="1" vertex="1">
                    <mxGeometry x="699" y="520" width="100" height="15" as="geometry"/>
                </mxCell>
                <mxCell id="80" style="rounded=0;orthogonalLoop=1;jettySize=auto;html=1;exitX=0.995;exitY=0.63;exitDx=0;exitDy=0;exitPerimeter=0;entryX=0.005;entryY=0.63;entryDx=0;entryDy=0;startArrow=none;startFill=0;endArrow=open;endFill=0;endSize=15;startSize=15;entryPerimeter=0;" parent="1" source="82" target="15" edge="1">
                    <mxGeometry relative="1" as="geometry">
                        <mxPoint x="679.75" y="338.24" as="sourcePoint"/>
                        <mxPoint x="645" y="327.6" as="targetPoint"/>
                    </mxGeometry>
                </mxCell>
                <mxCell id="82" value="" style="html=1;dashed=0;whitespace=wrap;fillColor=#2875E2;strokeColor=#ffffff;points=[[0.005,0.63,0],[0.1,0.2,0],[0.9,0.2,0],[0.5,0,0],[0.995,0.63,0],[0.72,0.99,0],[0.5,1,0],[0.28,0.99,0]];shape=mxgraph.kubernetes.icon;prIcon=svc;fontSize=11;" parent="1" vertex="1">
                    <mxGeometry x="565" y="308" width="50" height="48" as="geometry"/>
                </mxCell>
                <mxCell id="85" style="rounded=0;orthogonalLoop=1;jettySize=auto;html=1;exitX=0.995;exitY=0.63;exitDx=0;exitDy=0;exitPerimeter=0;entryX=0.005;entryY=0.63;entryDx=0;entryDy=0;startArrow=none;startFill=0;endArrow=open;endFill=0;endSize=15;startSize=15;entryPerimeter=0;" parent="1" source="82" target="78" edge="1">
                    <mxGeometry relative="1" as="geometry">
                        <mxPoint x="591.75" y="349.74" as="sourcePoint"/>
                        <mxPoint x="730.25" y="302.24" as="targetPoint"/>
                    </mxGeometry>
                </mxCell>
                <mxCell id="90" value="BGP Peer" style="text;html=1;strokeColor=none;fillColor=none;align=center;verticalAlign=middle;whiteSpace=wrap;rounded=0;fontSize=15;" parent="1" vertex="1">
                    <mxGeometry x="240" y="351" width="80" height="20" as="geometry"/>
                </mxCell>
                <mxCell id="94" style="edgeStyle=none;shape=arrow;rounded=0;orthogonalLoop=1;jettySize=auto;html=1;entryX=0.005;entryY=0.63;entryDx=0;entryDy=0;fillColor=#99FF99;entryPerimeter=0;" parent="1" edge="1">
                    <mxGeometry relative="1" as="geometry">
                        <mxPoint x="167" y="321.7197969543147" as="sourcePoint"/>
                        <mxPoint x="565.25" y="319.24" as="targetPoint"/>
                    </mxGeometry>
                </mxCell>
                <mxCell id="18" value="" style="html=1;dashed=0;whitespace=wrap;fillColor=#2875E2;strokeColor=#ffffff;points=[[0.005,0.63,0],[0.1,0.2,0],[0.9,0.2,0],[0.5,0,0],[0.995,0.63,0],[0.72,0.99,0],[0.5,1,0],[0.28,0.99,0]];shape=mxgraph.kubernetes.icon;prIcon=pod" parent="1" vertex="1">
                    <mxGeometry x="452" y="300" width="50" height="48" as="geometry"/>
                </mxCell>
            </root>
        </mxGraphModel>
    </diagram>
</mxfile>